<svg width="800" height="670" viewBox="0 0 800 670" fill="none" xmlns="http://www.w3.org/2000/svg">
<g clip-path="url(#clip0_35_22)">
<path d="M624.266 63.7339L446.77 164.563L414.629 222.21L479.079 301.534L399.24 410.583L462.613 509.885L398.552 628.707L774.114 401.59L785.386 182.798L624.266 63.7339Z" fill="#D6481A"/>
<path d="M447.164 164.823L624.306 63.2355L431.471 218.526L447.164 164.823Z" fill="#AF3312"/>
<path d="M397.868 629.155C404.082 623.849 708.78 387.808 708.78 387.808L785.649 182.91L774.156 401.645L397.868 629.155Z" fill="#AF3312"/>
<path opacity="0.52" d="M617.856 111.876L527.309 197.176L750.916 183.087L617.856 111.876Z" fill="#F9BEAF"/>
</g>
<g clip-path="url(#clip1_35_22)">
<path d="M42.1121 395.247L19.8056 188.862L209.381 69.9444L341.617 161.796L320.561 225.254L400.975 288.898L346.293 412.494L429.497 496.447L393.805 626.013L42.1121 395.247Z" fill="#D6481A"/>
<path opacity="0.52" d="M341.617 161.796L328.395 201.466L209.381 69.9444L341.617 161.796Z" fill="#F9BEAF"/>
<path d="M19.5769 188.84L42.0982 395.146L393.66 626.033L82.5474 372.137L19.5769 188.84Z" fill="#AF3312"/>
</g>
<defs>
<clipPath id="clip0_35_22">
<rect width="674" height="582" fill="white" transform="translate(127.854 24) rotate(4.5188)"/>
</clipPath>
<clipPath id="clip1_35_22">
<rect width="674" height="582" fill="white" transform="translate(0.519043 92.5912) rotate(-7.82497)"/>
</clipPath>
</defs>
</svg>
