<svg xmlns="http://www.w3.org/2000/svg" viewBox="0 0 143.52 123.89"><defs><style>.a{fill:#d6481a;}.b{fill:#f9beaf;opacity:0.52;}.c{fill:#af3312;}</style></defs><title>Element 6</title><polygon class="a" points="69.92 24.53 44.77 1.23 1.23 20.85 0 65.01 67.47 123.89 143.52 69.31 142.29 22.69 106.11 0 69.92 24.53"/><polygon class="b" points="69.92 24.53 67.47 36.19 44.77 1.23 69.92 24.53"/><polygon class="c" points="69.92 24.53 106.11 0 67.47 36.19 69.92 24.53"/><path class="c" d="M67.47,123.89c1.23-1.23,61.95-56.43,61.95-56.43l12.88-44.77,1.23,46.61Z"/><polygon class="c" points="1.23 20.85 0 65.01 67.47 123.89 9.2 61.33 1.23 20.85"/><polygon class="b" points="105.49 10.43 87.7 30.05 134.93 23.31 105.49 10.43"/></svg>