<svg width="2500" height="1543" viewBox="0 0 2500 1543" fill="none" xmlns="http://www.w3.org/2000/svg">
<rect width="2500" height="1542" rx="200" fill="white"/>
<path d="M2327.84 1541.91H179.639C82.334 1541.91 0 1459.59 0 1362.28V179.639C0 82.334 82.334 0 179.639 0H2320.36C2417.67 0 2500 82.334 2500 179.639V1362.28C2500 1459.58 2425.15 1541.91 2327.84 1541.91ZM179.639 119.756C149.697 119.756 119.756 149.697 119.756 179.639V1362.28C119.756 1399.7 149.697 1422.16 179.639 1422.16H2320.36C2357.78 1422.16 2380.24 1392.22 2380.24 1362.28V179.639C2380.24 142.217 2350.3 119.756 2320.36 119.756H179.639ZM359.277 1182.64V359.277H598.799L838.32 658.691L1077.84 359.277H1317.36V1182.64H1077.84V711.074L838.32 1010.49L598.799 711.074V1182.64H359.277ZM1863.77 1182.64L1504.49 785.928H1744.01V359.277H1983.54V778.447H2223.06L1863.77 1182.64Z" fill="black"/>
</svg>
